<svg xmlns="http://www.w3.org/2000/svg" width="256" height="256"><path fill-opacity=".016" d="M0 128.004v128.004l128.25-.254 128.25-.254.254-127.75L257.008 0H0v128.004m.485.496c0 70.4.119 99.053.265 63.672.146-35.38.146-92.98 0-128C.604 29.153.485 58.1.485 128.5" fill="#1976D2" fill-rule="evenodd"/><path fill-opacity=".311" d="M52.5 1.893C36.739 6.493 21.672 18.712 14.761 32.5c-6.743 13.453-6.762 13.706-6.75 88.697.012 74.24-.274 70.549 6.54 84.341 6.572 13.3 17.838 24.354 31.449 30.857 5.625 2.687 7.78 3.144 16 3.394 5.225.158 18.275-.583 29-1.649 10.725-1.065 19.624-1.821 19.775-1.68.151.141-4.484 4.423-10.3 9.515-5.816 5.092-10.393 9.44-10.171 9.662.222.222 18.807-1.851 41.3-4.607 22.493-2.756 44.946-5.491 49.896-6.077 4.95-.587 9.653-1.287 10.451-1.556.885-.298-2.769-3.288-9.37-7.667l-10.821-7.178 9.37-1.17c5.154-.643 16.57-1.919 25.37-2.836 8.8-.917 17.024-1.876 18.275-2.132 4.031-.824 6.225-3.981 6.225-8.959 0-5.996-3.199-9.455-8.743-9.455-4.314 0-26.703 1.841-103.745 8.531-9.343.811-25.942 2.171-36.886 3.023l-19.899 1.547-5.496-2.689c-6.989-3.419-17.173-13.375-20.591-20.129L33 189.066v-67.339c0-65.06.069-67.54 2.031-73.283 2.702-7.91 7.56-14.323 14.102-18.616C56.493 24.999 59.977 24 69.462 24c12.688 0 72.803 6.151 133.335 13.642 23.982 2.969 25.279 2.815 27.836-3.306 1.83-4.381 1.144-9.323-1.645-11.847-2.311-2.092-3.169-2.24-42.988-7.464C121.433 6.555 67.608.003 63.15.071 60.593.11 55.8.93 52.5 1.893m25.322 38.003c-3.139 2.503-5.257 8.116-4.279 11.338.981 3.236 4.444 6.805 8.122 8.373 1.741.742 8.266 1.814 14.5 2.383C106.38 62.922 224.96 71 228.421 71c.79 0 2.143.707 3.008 1.571 1.384 1.385 1.571 7.206 1.571 48.878 0 39.606-.231 47.498-1.418 48.483-1.82 1.51-37.301 3.984-123.009 8.574-20.378 1.091-28.513 1.88-30.096 2.917-4.92 3.224-5.601 11.607-1.378 16.976C79.027 200.85 79.655 201 87.982 201c4.86 0 32.164-1.573 60.677-3.496 86.615-5.842 82.291-5.439 86.993-8.113 4.923-2.799 9.981-9.315 11.441-14.738 1.682-6.243.801-107.435-.963-110.653-1.967-3.59-7.185-8.938-10.326-10.583-2.701-1.415-121.006-13.749-144.304-15.045-10.231-.569-11.187-.462-13.678 1.524m68.833 47.933C145.26 89.37 145 92.174 145 105.674c0 14.246.202 16.199 1.829 17.671 1.006.91 2.491 1.655 3.3 1.655 3.444 0 3.871-2.152 3.871-19.5 0-17.529-.409-19.5-4.045-19.5-.905 0-2.39.823-3.3 1.829M132.29 97.965c-3.643 2.221-7.863 8.128-9.814 13.738-.783 2.25-1.299 8.015-1.267 14.149.048 9.397.324 10.895 2.993 16.236 3.445 6.895 8.242 11.183 15.586 13.932 6.754 2.529 10.684 2.497 17.591-.146 12.061-4.616 18.615-14.062 19.422-27.99.671-11.592-3.404-24.067-9.403-28.785-3.523-2.772-4.078-2.674-6.391 1.131l-1.964 3.229 3.506 3.591c3.904 3.999 7.451 12.223 7.451 17.279 0 15.016-12.489 26.836-24.528 23.213-6.643-1.999-10.955-5.757-14.004-12.202-2.189-4.626-2.606-6.704-2.259-11.257.486-6.38 3.311-12.947 7.837-18.221 3.058-3.563 3.089-3.701 1.512-6.75-1.894-3.661-2.087-3.697-6.268-1.147" fill="#1976D2" fill-rule="evenodd"/><path fill-opacity=".121" d="M55 1.554C38.703 5.05 22.073 18.056 14.789 33 8.105 46.714 8 48.094 8 121.989c0 64.333.055 66.238 2.086 72.293 6.946 20.699 22.05 36.925 40.702 43.722 5.699 2.077 7.34 2.23 17.5 1.629 6.167-.364 18.081-1.366 26.476-2.226 8.395-.86 15.693-1.416 16.217-1.236.525.181-1.844 2.686-5.264 5.568-3.419 2.881-8.467 7.298-11.217 9.816-4.22 3.864-4.61 4.501-2.5 4.083 1.375-.273 23.65-3.027 49.5-6.121 25.85-3.094 47.831-5.953 48.847-6.354 1.484-.586-.155-2.061-8.347-7.516-5.606-3.733-10.004-6.976-9.772-7.208.231-.232 12.537-1.796 27.346-3.476 25.628-2.908 27.034-3.176 29.176-5.565 3.891-4.34 2.403-12.263-2.699-14.377-2.731-1.131-7.096-.84-74.551 4.971-94.691 8.158-88.857 7.874-95.251 4.634-6.937-3.515-17.18-13.268-20.802-19.807L32.5 189.5l-.267-27c-.146-14.85.079-46.136.5-69.524l.767-42.524 3.25-6.599c3.87-7.856 10.175-14.01 18.075-17.64 5.095-2.34 6.749-2.587 16.175-2.417 14.881.27 60.289 4.899 125.354 12.781 30.302 3.67 29.994 3.675 33.319-.577 3.315-4.241 1.58-13.214-2.875-14.864-1.264-.469-8.148-1.593-15.298-2.499-7.15-.905-23.35-3.001-36-4.656C134.442 8.608 64.863-.002 63.16.079c-.913.044-4.585.708-8.16 1.475m91.667 86.113c-.834.833-.888 32.593-.06 34.751.715 1.864 4.479 2.096 6.193.382 1.265-1.265 1.783-31.118.593-34.218-.603-1.572-5.415-2.226-6.726-.915m-16.191 12.488c-6.661 5.849-10.039 16.173-9.26 28.304.733 11.423 5.727 20.079 14.579 25.267 6.233 3.653 17.415 3.903 24.235.541 5.719-2.818 11.175-8.464 13.787-14.267 2.952-6.558 2.87-22.395-.155-29.776-4.406-10.751-11.114-15.623-12.699-9.224-.463 1.869.092 3.327 2.203 5.778 5.084 5.905 6.834 10.528 6.834 18.055 0 16.75-11.442 26.898-25.59 22.696-10.076-2.992-15.416-10.876-15.401-22.739.008-6.303.414-7.967 3-12.29 1.644-2.75 3.968-6.224 5.164-7.721 1.846-2.31 2-3.103 1.022-5.25-1.522-3.34-3.373-3.19-7.719.626" fill="#1976D2" fill-rule="evenodd"/><path fill-opacity=".658" d="M49.942 3.287C35.114 8.342 21.747 19.604 15.564 32.252c-6.802 13.913-6.646 11.693-6.34 90.374L9.5 193.5l5.205 10.5c3.068 6.189 7.295 12.844 10.297 16.209 6.697 7.509 18.39 15.245 26.991 17.858 6.75 2.05 7.111 2.056 26.176.472 10.632-.883 22.594-1.955 26.581-2.381 3.987-.427 7.25-.48 7.25-.118 0 .363-4.768 4.776-10.595 9.809-11.513 9.943-11.521 9.859.804 8.126 4.01-.565 23.941-3.031 44.291-5.483 20.35-2.451 38.978-4.727 41.395-5.057l4.394-.601-10.791-7.159c-12.938-8.583-14.63-7.562 18.502-11.165 12.925-1.406 24.542-2.787 25.816-3.069 4.794-1.061 6.347-10.368 2.451-14.691-2.106-2.337-8.743-2.286-38.334.291-76.577 6.668-117.272 9.947-123.433 9.944-5.964-.003-7.784-.453-12.297-3.042-7.371-4.227-16.415-13.584-19.565-20.243L32 188.124l.058-58.812c.069-70.528.509-78.908 4.527-86.29 6.013-11.049 17.473-19.037 28.449-19.831 6.349-.459 28.913 1.457 69.466 5.899 36.669 4.016 85.487 9.788 88.296 10.439 1.656.384 3.12-.291 5.25-2.421 3.791-3.791 4.099-9.712.704-13.521-2.323-2.607-5.308-3.172-39.75-7.531a6935.676 6935.676 0 01-23-2.982C112.43 6.045 69.541 1.004 63.502 1.026c-4.567.017-9.283.803-13.56 2.261" fill="#1976D2" fill-rule="evenodd"/></svg>